<?xml version="1.0" encoding="UTF-8" standalone="no"?>
<svg width="20px" height="24px" viewBox="0 0 20 24" version="1.1" xmlns="http://www.w3.org/2000/svg" xmlns:xlink="http://www.w3.org/1999/xlink">
    <!-- Generator: Sketch 43.2 (39069) - http://www.bohemiancoding.com/sketch -->
    <title>androidLogo</title>
    <desc>Created with Sketch.</desc>
    <defs></defs>
    <g id="V2" stroke="none" stroke-width="1" fill="none" fill-rule="evenodd">
        <g id="PNG's" transform="translate(-406.000000, -672.000000)" fill-rule="nonzero" fill="#F4F4F4">
            <g id="androidLogo" transform="translate(406.000000, 672.000000)">
                <path d="M16.5756,18.1702092 C16.5756,18.7074979 16.144,19.1435146 15.60795,19.1435146 L4.40025,19.1435146 C3.8652,19.1435146 3.43205,18.7075481 3.43205,18.1702092 L3.43205,8.11516318 C6.3699,8.1043682 13.22355,8.1043682 16.5756,8.11516318 L16.5756,18.1702092 Z" id="Shape"></path>
                <path d="M7.5839,2.95983264 C7.6392,3.06883682 7.5972,3.2051046 7.48715,3.26164017 L7.48715,3.26164017 C7.3781,3.31717155 7.24245,3.27348954 7.18715,3.16398326 L5.77045,0.391230126 C5.71415,0.280719665 5.75915,0.147012552 5.86825,0.0899748954 L5.86825,0.0899748954 C5.9773,0.0333891213 6.11195,0.0771213389 6.16825,0.187179916 L7.58395,2.95993305 L7.5839,2.95983264 Z" id="Shape"></path>
                <path d="M12.7438,3.07656904 C12.68235,3.18401674 12.5462,3.22102092 12.43865,3.15730544 L12.43865,3.15730544 C12.33215,3.09660251 12.2958,2.95988285 12.35825,2.85238494 L13.9096,0.154644351 C13.97105,0.0476987448 14.10825,0.00969037657 14.2137,0.0729037657 L14.2137,0.0729037657 C14.32125,0.134058577 14.35755,0.271380753 14.29615,0.377774059 L12.74375,3.07651883 L12.7438,3.07656904 Z" id="Shape"></path>
                <path d="M19.9973,15.4436987 C19.9973,16.2257071 19.36655,16.8606527 18.58625,16.8606527 L18.58625,16.8606527 C17.80595,16.8606527 17.17365,16.2262092 17.17365,15.4436987 L17.17365,9.24261088 C17.17365,8.45904603 17.80545,7.826159 18.58625,7.826159 L18.58625,7.826159 C19.36605,7.826159 19.9973,8.45909623 19.9973,9.24261088 L19.9973,15.4436987 Z" id="Shape"></path>
                <path d="M2.8248,15.4436987 C2.8248,16.2257071 2.192,16.8606527 1.41425,16.8606527 L1.41425,16.8606527 C0.63345,16.8606527 0.00215,16.2262092 0.00215,15.4436987 L0.00215,9.24261088 C0.00215,8.45904603 0.6329,7.826159 1.41425,7.826159 L1.41425,7.826159 C2.192,7.826159 2.8248,8.45909623 2.8248,9.24261088 L2.8248,15.4436987 Z" id="Shape"></path>
                <path d="M8.96985,22.5404184 C8.96985,23.3224268 8.33805,23.9573724 7.55675,23.9573724 L7.55675,23.9573724 C6.778,23.9573724 6.14725,23.3229289 6.14725,22.5404184 L6.14725,16.3393305 C6.14725,15.5578243 6.778,14.9213222 7.55675,14.9213222 L7.55675,14.9213222 C8.33755,14.9213222 8.96985,15.5578243 8.96985,16.3393305 L8.96985,22.5404184 Z" id="Shape"></path>
                <path d="M13.8651,22.5404184 C13.8651,23.3224268 13.2333,23.9573724 12.4525,23.9573724 L12.4525,23.9573724 C11.67375,23.9573724 11.04145,23.3229289 11.04145,22.5404184 L11.04145,16.3393305 C11.04145,15.5578243 11.67325,14.9213222 12.4525,14.9213222 L12.4525,14.9213222 C13.2328,14.9213222 13.8651,15.5578243 13.8651,16.3393305 L13.8651,22.5404184 Z" id="Shape"></path>
                <path d="M10.0041,1.48935565 C6.57165,1.48935565 3.7449,4.11253556 3.36705,7.48428452 L16.64065,7.48428452 C16.26385,4.11253556 13.4386,1.48940586 10.0041,1.48940586 L10.0041,1.48935565 Z M7.0094,5.12384937 C6.7032,5.12384937 6.4559,4.87656904 6.4559,4.57014226 C6.4559,4.26476987 6.7032,4.01743933 7.0094,4.01743933 C7.3125,4.01743933 7.5598,4.26471967 7.5598,4.57014226 C7.5598,4.87656904 7.3125,5.12384937 7.0094,5.12384937 Z M13.01055,5.12384937 C12.7054,5.12384937 12.4581,4.87656904 12.4581,4.57014226 C12.4581,4.26476987 12.7054,4.01743933 13.01055,4.01743933 C13.3167,4.01743933 13.562,4.26471967 13.562,4.57014226 C13.562,4.87656904 13.31675,5.12384937 13.01055,5.12384937 Z" id="Shape"></path>
            </g>
        </g>
    </g>
</svg>