<?xml version="1.0" encoding="UTF-8" standalone="no"?>
<svg width="20px" height="24px" viewBox="0 0 20 24" version="1.1" xmlns="http://www.w3.org/2000/svg" xmlns:xlink="http://www.w3.org/1999/xlink">
    <!-- Generator: Sketch 43.2 (39069) - http://www.bohemiancoding.com/sketch -->
    <title>appleLogo</title>
    <desc>Created with Sketch.</desc>
    <defs></defs>
    <g id="V2" stroke="none" stroke-width="1" fill="none" fill-rule="evenodd">
        <g id="PNG's" transform="translate(-186.000000, -672.000000)" fill-rule="nonzero" fill="#F4F4F4">
            <g id="appleLogo" transform="translate(186.000000, 672.000000)">
                <path d="M19.473913,18.6219512 C19.1188406,19.4502439 18.6985507,20.2126829 18.2115942,20.9136585 C17.5478261,21.8692683 17.0043478,22.5307317 16.5855072,22.8980488 C15.9362319,23.5009756 15.2405797,23.8097561 14.4956522,23.8273171 C13.9608696,23.8273171 13.315942,23.6736585 12.5652174,23.3619512 C11.812029,23.0517073 11.1198551,22.8980488 10.4869565,22.8980488 C9.82318841,22.8980488 9.11130435,23.0517073 8.34985507,23.3619512 C7.58724638,23.6736585 6.97289855,23.8360976 6.50318841,23.8521951 C5.78884058,23.8829268 5.07681159,23.5653659 4.36608696,22.8980488 C3.91246377,22.4985366 3.34507246,21.8136585 2.66536232,20.8434146 C1.93608696,19.8073171 1.33652174,18.6058537 0.866811594,17.2360976 C0.363768116,15.7565854 0.111594203,14.3239024 0.111594203,12.936878 C0.111594203,11.3480488 0.451594203,9.97770732 1.1326087,8.82936585 C1.66782609,7.90697561 2.37985507,7.17936585 3.27101449,6.64521951 C4.16217391,6.11107317 5.12507246,5.83887805 6.16202899,5.82146341 C6.72942029,5.82146341 7.47347826,5.99868293 8.39811594,6.34697561 C9.32014493,6.69643902 9.91217391,6.87365854 10.1717391,6.87365854 C10.3657971,6.87365854 11.0234783,6.66643902 12.1384058,6.25331707 C13.1927536,5.87019512 14.0826087,5.71156098 14.8115942,5.77404878 C16.7869565,5.93502439 18.2710145,6.72131707 19.257971,8.13790244 C17.4913043,9.21878049 16.6173913,10.7326829 16.6347826,12.6747805 C16.6507246,14.1875122 17.1942029,15.4463415 18.2623188,16.4458537 C18.7463768,16.9097561 19.2869565,17.2682927 19.8884058,17.5229268 C19.757971,17.904878 19.6202899,18.2707317 19.473913,18.6219512 L19.473913,18.6219512 Z M14.9434783,0.620487805 C14.9434783,1.80616098 14.5144928,2.91321951 13.6594203,3.93790244 C12.6275362,5.15604878 11.3794203,5.85995122 10.025942,5.74887805 C10.0086957,5.60663415 9.99869565,5.45692683 9.99869565,5.29960976 C9.99869565,4.16136585 10.4894203,2.94321951 11.3608696,1.94721951 C11.795942,1.44292683 12.3492754,1.02361463 13.0202899,0.689121951 C13.6898551,0.359619512 14.3231884,0.177395122 14.9188406,0.146195122 C14.9362319,0.304697561 14.9434783,0.463214634 14.9434783,0.620473171 L14.9434783,0.620487805 Z" id="Shape"></path>
            </g>
        </g>
    </g>
</svg>